<svg width="256" height="256" viewBox="0 0 256 256" fill="none" xmlns="http://www.w3.org/2000/svg">
<g clip-path="url(#clip0_3_30)">
<path d="M228 72V240C228 248.837 220.837 256 212 256L84 256V88H28V71.8466V16C28 7.16343 35.1634 0 44 0H100H156.003L228 72Z" fill="url(#paint0_linear_3_30)"/>
<path d="M172 72C163.163 72 156 64.8366 156 56V0L228 72H172Z" fill="url(#paint1_linear_3_30)"/>
<path d="M92 64H28V128H92V64V64Z" fill="url(#paint2_linear_3_30)"/>
<path d="M92 128H28V192H92V128V128Z" fill="url(#paint3_linear_3_30)"/>
<path d="M92 192V256L44 256C35.1634 256 28 248.837 28 240V192.007L92 192V192V192Z" fill="url(#paint4_linear_3_30)"/>
<path d="M200 120C204.418 120 208 123.582 208 128V152H232C236.418 152 240 155.582 240 160V192C240 196.418 236.418 200 232 200H208V224C208 228.418 204.418 232 200 232H168C163.582 232 160 228.418 160 224V200H136C131.582 200 128 196.418 128 192V160C128 155.582 131.582 152 136 152H160V128C160 123.582 163.582 120 168 120H200Z" fill="#30AA12"/>
</g>
<defs>
<linearGradient id="paint0_linear_3_30" x1="228" y1="256" x2="28" y2="256" gradientUnits="userSpaceOnUse">
<stop stop-color="#C965EB"/>
<stop offset="1" stop-color="#C767E5"/>
</linearGradient>
<linearGradient id="paint1_linear_3_30" x1="124.219" y1="36" x2="192" y2="103.781" gradientUnits="userSpaceOnUse">
<stop stop-color="#8521B0"/>
<stop offset="1" stop-color="#64129A"/>
</linearGradient>
<linearGradient id="paint2_linear_3_30" x1="92" y1="128" x2="28" y2="128" gradientUnits="userSpaceOnUse">
<stop stop-color="#AE4CD5"/>
<stop offset="1" stop-color="#AC4AD5"/>
</linearGradient>
<linearGradient id="paint3_linear_3_30" x1="92" y1="192" x2="28" y2="192" gradientUnits="userSpaceOnUse">
<stop stop-color="#912FBD"/>
<stop offset="1" stop-color="#9332BF"/>
</linearGradient>
<linearGradient id="paint4_linear_3_30" x1="28" y1="256" x2="28" y2="192" gradientUnits="userSpaceOnUse">
<stop stop-color="#7819A2"/>
<stop offset="1" stop-color="#771AA9"/>
</linearGradient>
<clipPath id="clip0_3_30">
<rect width="256" height="256" fill="white" transform="matrix(1 0 0 -1 0 256)"/>
</clipPath>
</defs>
</svg>
